<svg width="256" height="73" viewBox="0 0 256 73" fill="none" xmlns="http://www.w3.org/2000/svg">
<path d="M13.134 0.251899C7.91046 2.4399 2.16896 8.6134 0.355457 16.3684C-1.94154 26.1909 7.61546 30.3459 8.39996 28.9854C9.32246 27.3849 6.68746 26.8439 6.14496 21.7469C5.44396 15.1639 8.50446 7.8084 12.3565 4.5809C13.0715 3.9809 13.038 4.8159 13.038 6.3594C13.038 9.1199 12.8855 33.9019 12.8855 39.0739C12.8855 46.0719 12.5965 48.2819 12.077 50.4659C11.5515 52.6784 10.7055 54.1739 11.346 54.7499C12.062 55.3939 15.119 53.8614 16.8885 51.3919C19.0105 48.4299 19.7535 44.8719 19.887 41.0094C20.048 36.3524 20.041 28.9624 20.048 24.7474C20.054 20.8819 20.113 9.5624 19.98 2.7574C19.9475 1.0874 15.3185 -0.663601 13.134 0.251899Z" fill="#343433"/>
<path d="M198.606 33.0034C198.437 36.6419 197.632 39.4854 196.632 41.4914C194.697 45.3749 190.682 46.5804 188.977 40.9984C188.048 37.9554 188.005 32.8734 188.672 28.6269C189.352 24.3014 191.251 21.0344 194.395 21.3289C197.496 21.6204 198.947 25.6159 198.606 33.0039V33.0034ZM146.331 55.5764C146.289 61.6214 145.337 66.9214 143.297 68.4614C140.403 70.6444 136.514 69.0064 137.319 64.5954C138.032 60.6919 141.402 56.7054 146.339 51.8344C146.339 51.8344 146.349 52.9454 146.331 55.5764ZM145.541 32.9679C145.364 36.2819 144.505 39.6104 143.567 41.4914C141.632 45.3749 137.588 46.5889 135.912 40.9984C134.766 37.1784 135.041 32.2354 135.607 29.1204C136.343 25.0789 138.127 21.3294 141.33 21.3294C144.444 21.3294 145.98 24.7459 145.541 32.9679ZM115.258 32.9179C115.068 36.4269 114.384 39.3604 113.285 41.4914C111.297 45.3484 107.364 46.5714 105.63 40.9984C104.38 36.9799 104.805 31.5009 105.325 28.5409C106.097 24.1484 108.03 21.0344 111.048 21.3294C114.147 21.6324 115.654 25.6159 115.258 32.9179ZM254.035 37.0169C253.277 37.0169 252.931 37.7979 252.645 39.1119C251.653 43.6839 250.61 44.7154 249.265 44.7154C247.763 44.7154 246.413 42.4524 246.065 37.9214C245.793 34.3584 245.837 27.7994 246.185 21.2749C246.257 19.9344 245.887 18.6079 242.291 17.3019C240.744 16.7399 238.495 15.9124 237.375 18.6154C234.212 26.2524 232.974 32.3154 232.682 34.7774C232.667 34.9049 232.51 34.9314 232.484 34.6334C232.298 32.6609 231.883 29.0759 231.831 21.5449C231.821 20.0754 231.51 18.8249 229.888 17.8009C228.836 17.1359 225.64 15.9609 224.49 17.3594C223.493 18.5024 222.338 21.5794 221.138 25.2274C220.163 28.1924 219.484 30.1974 219.484 30.1974C219.484 30.1974 219.497 22.1984 219.509 19.1639C219.514 18.0194 218.729 17.6379 218.492 17.5689C217.427 17.2599 215.327 16.7434 214.436 16.7434C213.336 16.7434 213.067 17.3574 213.067 18.2534C213.067 18.3709 212.893 28.7849 212.893 36.0669C212.893 36.3834 212.893 36.7284 212.895 37.0954C212.287 40.4424 210.314 44.9854 208.169 44.9854C206.021 44.9854 205.008 43.0864 205.008 34.4049C205.008 29.3404 205.16 27.1379 205.235 23.4749C205.278 21.3649 205.362 19.7449 205.357 19.3774C205.341 18.2499 203.392 17.6814 202.485 17.4714C201.573 17.2599 200.781 17.1774 200.163 17.2129C199.287 17.2629 198.668 17.8364 198.668 18.6264C198.668 19.0504 198.673 19.8554 198.673 19.8554C197.545 18.0834 195.732 16.8504 194.525 16.4929C191.275 15.5279 187.884 16.3829 185.326 19.9624C183.293 22.8059 182.068 26.0274 181.585 30.6549C181.233 34.0384 181.348 37.4689 181.975 40.3704C181.217 43.6444 179.812 44.9854 178.272 44.9854C176.037 44.9854 174.417 41.3384 174.605 35.0294C174.729 30.8799 175.56 27.9679 176.467 23.7549C176.854 21.9589 176.54 21.0189 175.751 20.1179C175.028 19.2914 173.486 18.8689 171.271 19.3879C169.693 19.7584 167.437 20.1569 165.372 20.4629C165.372 20.4629 165.497 19.9654 165.599 19.0894C166.136 14.4944 161.143 14.8669 159.549 16.3344C158.599 17.2109 157.951 18.2444 157.706 20.1024C157.316 23.0514 159.721 24.4424 159.721 24.4424C158.932 28.0544 156.997 32.7724 155.001 36.1839C153.931 38.0114 153.113 39.3659 152.057 40.8054C152.022 35.0285 152.06 29.2514 152.17 23.4754C152.213 21.3654 152.298 19.7884 152.293 19.4204C152.281 18.5964 151.8 18.2844 150.798 17.8904C149.912 17.5414 148.865 17.3004 147.779 17.2154C146.408 17.1094 145.582 17.8359 145.604 18.6959C145.608 18.8584 145.608 19.8554 145.608 19.8554C144.48 18.0834 142.667 16.8504 141.46 16.4929C138.21 15.5279 134.819 16.3829 132.261 19.9624C130.229 22.8059 128.898 26.7969 128.52 30.6199C128.169 34.1824 128.234 37.2099 128.713 39.7609C128.196 42.3149 126.71 44.9859 125.031 44.9859C122.883 44.9859 121.661 43.0864 121.661 34.4049C121.661 29.3404 121.813 27.1379 121.888 23.4749C121.931 21.3654 122.015 19.7449 122.01 19.3774C121.994 18.2499 120.045 17.6819 119.137 17.4714C118.188 17.2514 117.369 17.1714 116.739 17.2179C115.909 17.2794 115.325 18.0229 115.325 18.5774V19.8554C114.198 18.0834 112.384 16.8504 111.178 16.4929C107.928 15.5279 104.556 16.3969 101.979 19.9624C100.299 22.2869 98.938 24.8639 98.238 30.5689C98.0355 32.2174 97.946 33.7619 97.958 35.2044C97.288 39.3024 94.328 44.0254 91.9075 44.0254C90.491 44.0254 89.1415 41.2774 89.1415 35.4219C89.1415 27.6219 89.6245 16.5159 89.7065 15.4459C89.7065 15.4459 92.765 15.3939 93.357 15.3869C94.883 15.3699 96.2645 15.4064 98.297 15.3019C99.316 15.2504 100.298 11.5919 99.246 11.1394C98.769 10.9344 95.3995 10.7554 94.0635 10.7269C92.9405 10.7019 89.8135 10.4699 89.8135 10.4699C89.8135 10.4699 90.094 3.09841 90.1595 2.31991C90.2145 1.67041 89.3745 1.33641 88.8935 1.13391C87.7225 0.638913 86.675 0.401414 85.4335 0.145413C83.7175 -0.208587 82.9395 0.137913 82.7875 1.58541C82.5585 3.78291 82.44 10.2194 82.44 10.2194C81.181 10.2194 76.88 9.97341 75.621 9.97341C74.451 9.97341 73.188 15.0054 74.806 15.0674C76.667 15.1394 79.9105 15.2024 82.0605 15.2664C82.0605 15.2664 81.9645 26.5554 81.9645 30.0414C81.9645 30.4114 81.9665 30.7689 81.9685 31.1154C80.785 37.2829 76.617 40.6149 76.617 40.6149C77.512 36.5344 75.6835 33.4699 72.39 30.8759C71.1765 29.9204 68.781 28.1109 66.101 26.1279C66.101 26.1279 67.653 24.5979 69.03 21.5199C70.005 19.3389 70.0475 16.8444 67.653 16.2939C63.697 15.3839 60.4355 18.2894 59.4625 21.3914C58.7085 23.7944 59.1105 25.5769 60.5875 27.4289C60.695 27.5644 60.8125 27.7029 60.9325 27.8419C60.04 29.5629 58.813 31.8804 57.774 33.6774C54.89 38.6674 52.7115 42.6134 51.065 42.6134C49.749 42.6134 49.7665 38.6064 49.7665 34.8549C49.7665 31.6209 50.0055 26.7584 50.1965 21.7249C50.2595 20.0599 49.4265 19.1114 48.0315 18.2524C47.1835 17.7304 45.374 16.7044 44.326 16.7044C42.757 16.7044 38.231 16.9179 33.955 29.2879C33.416 30.8469 32.357 33.6879 32.357 33.6879L32.4485 18.8124C32.4485 18.4634 32.2625 18.1264 31.837 17.8959C31.1165 17.5044 29.192 16.7044 27.4805 16.7044C26.6655 16.7044 26.258 17.0834 26.258 17.8394L26.109 41.1124C26.109 42.8809 26.155 44.9439 26.33 45.8459C26.504 46.7489 26.7865 47.4839 27.1355 47.9209C27.485 48.3574 27.8885 48.6909 28.554 48.8279C29.1735 48.9554 32.5655 49.3909 32.742 48.0949C32.953 46.5409 32.9615 44.8609 34.7425 38.5939C37.5155 28.8369 41.1305 24.0769 42.8305 22.3859C43.128 22.0909 43.467 22.0729 43.4505 22.5564C43.3785 24.6954 43.123 30.0414 42.9515 34.5814C42.491 46.7339 44.7015 48.9864 47.861 48.9864C50.278 48.9864 53.685 46.5849 57.337 40.5059C59.3719 37.1182 61.3974 33.7248 63.4135 30.3259C64.52 31.3504 65.7625 32.4529 67.0035 33.6309C69.8885 36.3689 70.8355 38.9709 70.207 41.4389C69.727 43.3254 67.9165 45.2699 64.695 43.3804C63.756 42.8289 63.355 42.4024 62.411 41.7809C61.904 41.4474 61.1295 41.3474 60.665 41.6974C59.459 42.6064 58.769 43.7634 58.375 45.1954C57.992 46.5889 59.3875 47.3254 60.8345 47.9699C62.08 48.5244 64.7575 49.0269 66.4645 49.0839C73.117 49.3064 78.4465 45.8719 82.1565 37.0124C82.8205 44.6639 85.6465 48.9934 90.557 48.9934C93.84 48.9934 97.1315 44.7499 98.571 40.5754C98.984 42.2769 99.596 43.7569 100.386 45.0084C104.17 51.0034 111.51 49.7134 115.197 44.6224C116.337 43.0494 116.51 42.4844 116.51 42.4844C117.048 47.2909 120.919 48.9704 123.135 48.9704C125.618 48.9704 128.18 47.7969 129.977 43.7529C130.187 44.1919 130.417 44.6114 130.668 45.0084C134.452 51.0034 141.792 49.7134 145.479 44.6224C145.653 44.3834 145.804 44.1674 145.936 43.9724L146.044 47.1299L142.649 50.2434C136.959 55.4584 132.637 59.4134 132.319 64.0199C131.914 69.8934 136.675 72.0764 140.282 72.3624C144.106 72.6659 147.386 70.5519 149.399 67.5934C151.171 64.9889 152.331 59.3839 152.246 53.8484C152.212 51.6314 152.156 48.8129 152.112 45.7914C154.11 43.4719 156.36 40.5399 158.432 37.1089C160.69 33.3694 163.11 28.3474 164.349 24.4389C164.349 24.4389 166.452 24.4574 168.696 24.3104C169.413 24.2634 169.62 24.4104 169.487 24.9359C169.327 25.5719 166.652 35.8884 169.093 42.7609C170.764 47.4659 174.53 48.9789 176.763 48.9789C179.378 48.9789 181.878 47.0049 183.218 44.0739C183.38 44.4004 183.549 44.7164 183.733 45.0089C187.517 51.0039 194.831 49.7054 198.544 44.6224C199.382 43.4754 199.858 42.4844 199.858 42.4844C200.654 47.4594 204.523 48.9959 206.739 48.9959C209.047 48.9959 211.238 48.0494 213.015 43.8439C213.09 45.6959 213.207 47.2099 213.391 47.6869C213.504 47.9794 214.16 48.3454 214.637 48.5224C216.749 49.3054 218.902 48.9354 219.699 48.7744C220.251 48.6624 220.681 48.2194 220.74 47.0764C220.895 44.0739 220.8 39.0294 221.71 35.2799C223.238 28.9884 224.663 26.5479 225.339 25.3399C225.717 24.6624 226.144 24.5509 226.16 25.2674C226.192 26.7174 226.264 30.9739 226.856 36.6939C227.291 40.8999 227.871 43.3864 228.317 44.1739C229.591 46.4239 231.163 46.5304 232.445 46.5304C233.26 46.5304 234.964 46.3054 234.811 44.8734C234.737 44.1754 234.867 39.8614 236.373 33.6629C237.357 29.6149 238.997 25.9579 239.588 24.6204C239.807 24.1274 239.908 24.5159 239.904 24.5919C239.78 27.3794 239.5 36.4974 240.636 41.4844C242.176 48.2399 246.629 48.9959 248.181 48.9959C251.494 48.9959 254.203 46.4759 255.116 39.8449C255.336 38.2489 255.01 37.0169 254.035 37.0169Z" fill="#343433"/>
</svg>
